<svg version="1.1" xmlns="http://www.w3.org/2000/svg" viewBox="400 300 2620 920" style="display: block;">
<defs>
	<linearGradient id="Gradient1" gradientUnits="userSpaceOnUse" x1="897.176" y1="1363.31" x2="941.321" y2="1356.21">
		<stop class="stop0" offset="0" stop-opacity="1" stop-color="rgb(83,91,35)"/>
		<stop class="stop1" offset="1" stop-opacity="1" stop-color="rgb(114,119,82)"/>
	</linearGradient>
	<linearGradient id="Gradient2" gradientUnits="userSpaceOnUse" x1="1046.28" y1="1582.75" x2="1016.92" y2="1582.17">
		<stop class="stop0" offset="0" stop-opacity="1" stop-color="rgb(117,119,83)"/>
		<stop class="stop1" offset="1" stop-opacity="1" stop-color="rgb(135,142,103)"/>
	</linearGradient>
	<linearGradient id="Gradient3" gradientUnits="userSpaceOnUse" x1="869.117" y1="1575.84" x2="882.565" y2="1596.22">
		<stop class="stop0" offset="0" stop-opacity="1" stop-color="rgb(121,126,85)"/>
		<stop class="stop1" offset="1" stop-opacity="1" stop-color="rgb(143,144,117)"/>
	</linearGradient>
	<linearGradient id="Gradient4" gradientUnits="userSpaceOnUse" x1="543.575" y1="1570.94" x2="560.032" y2="1605.67">
		<stop class="stop0" offset="0" stop-opacity="1" stop-color="rgb(117,118,75)"/>
		<stop class="stop1" offset="1" stop-opacity="1" stop-color="rgb(153,159,130)"/>
	</linearGradient>
	<linearGradient id="Gradient5" gradientUnits="userSpaceOnUse" x1="604.673" y1="786.959" x2="623.063" y2="778.47">
		<stop class="stop0" offset="0" stop-opacity="1" stop-color="rgb(59,71,26)"/>
		<stop class="stop1" offset="1" stop-opacity="1" stop-color="rgb(106,113,44)"/>
	</linearGradient>
	<linearGradient id="Gradient6" gradientUnits="userSpaceOnUse" x1="552.898" y1="857.73" x2="561.95" y2="821.872">
		<stop class="stop0" offset="0" stop-opacity="1" stop-color="rgb(87,96,27)"/>
		<stop class="stop1" offset="1" stop-opacity="1" stop-color="rgb(111,119,45)"/>
	</linearGradient>
	<linearGradient id="Gradient7" gradientUnits="userSpaceOnUse" x1="654.754" y1="877.868" x2="713.246" y2="796.132">
		<stop class="stop0" offset="0" stop-opacity="1" stop-color="rgb(65,76,21)"/>
		<stop class="stop1" offset="1" stop-opacity="1" stop-color="rgb(125,129,58)"/>
	</linearGradient>
	<linearGradient id="Gradient8" gradientUnits="userSpaceOnUse" x1="523.799" y1="731.839" x2="548.889" y2="718.998">
		<stop class="stop0" offset="0" stop-opacity="1" stop-color="rgb(62,74,27)"/>
		<stop class="stop1" offset="1" stop-opacity="1" stop-color="rgb(107,115,41)"/>
	</linearGradient>
	<linearGradient id="Gradient9" gradientUnits="userSpaceOnUse" x1="721.28" y1="915.437" x2="770.563" y2="848.417">
		<stop class="stop0" offset="0" stop-opacity="1" stop-color="rgb(71,80,34)"/>
		<stop class="stop1" offset="1" stop-opacity="1" stop-color="rgb(126,136,50)"/>
	</linearGradient>
	<linearGradient id="Gradient10" gradientUnits="userSpaceOnUse" x1="998.86" y1="1188.21" x2="923.039" y2="1092.66">
		<stop class="stop0" offset="0" stop-opacity="1" stop-color="rgb(49,71,18)"/>
		<stop class="stop1" offset="1" stop-opacity="1" stop-color="rgb(121,124,47)"/>
	</linearGradient>
	<linearGradient id="Gradient11" gradientUnits="userSpaceOnUse" x1="766.067" y1="1067.01" x2="751.445" y2="1002.41">
		<stop class="stop0" offset="0" stop-opacity="1" stop-color="rgb(83,95,24)"/>
		<stop class="stop1" offset="1" stop-opacity="1" stop-color="rgb(115,128,45)"/>
	</linearGradient>
	<linearGradient id="Gradient12" gradientUnits="userSpaceOnUse" x1="861.437" y1="1123.32" x2="844.152" y2="1060.98">
		<stop class="stop0" offset="0" stop-opacity="1" stop-color="rgb(58,75,20)"/>
		<stop class="stop1" offset="1" stop-opacity="1" stop-color="rgb(118,126,47)"/>
	</linearGradient>
	<linearGradient id="Gradient13" gradientUnits="userSpaceOnUse" x1="964.94" y1="1063.8" x2="837.417" y2="833.086">
		<stop class="stop0" offset="0" stop-opacity="1" stop-color="rgb(66,76,24)"/>
		<stop class="stop1" offset="1" stop-opacity="1" stop-color="rgb(132,141,57)"/>
	</linearGradient>
	<linearGradient id="Gradient14" gradientUnits="userSpaceOnUse" x1="827.244" y1="912.146" x2="820.636" y2="914.662">
		<stop class="stop0" offset="0" stop-opacity="1" stop-color="rgb(79,90,28)"/>
		<stop class="stop1" offset="1" stop-opacity="1" stop-color="rgb(125,136,61)"/>
	</linearGradient>
	<linearGradient id="Gradient15" gradientUnits="userSpaceOnUse" x1="990.431" y1="1091.03" x2="1120.51" y2="833.589">
		<stop class="stop0" offset="0" stop-opacity="1" stop-color="rgb(153,106,20)"/>
		<stop class="stop1" offset="1" stop-opacity="1" stop-color="rgb(206,168,90)"/>
	</linearGradient>
	<linearGradient id="Gradient16" gradientUnits="userSpaceOnUse" x1="1079.33" y1="600.773" x2="1379.6" y2="733.322">
		<stop class="stop0" offset="0" stop-opacity="1" stop-color="rgb(205,161,76)"/>
		<stop class="stop1" offset="1" stop-opacity="1" stop-color="rgb(235,203,140)"/>
	</linearGradient>
	<linearGradient id="Gradient17" gradientUnits="userSpaceOnUse" x1="1265.05" y1="1129.97" x2="1196.76" y2="820.722">
		<stop class="stop0" offset="0" stop-opacity="1" stop-color="rgb(175,123,31)"/>
		<stop class="stop1" offset="1" stop-opacity="1" stop-color="rgb(211,168,86)"/>
	</linearGradient>
</defs>
<path transform="translate(0,0)" fill="rgb(65,78,22)" d="M 653.88 753.37 L 654.01 532.58 L 654.066 473.088 C 654.081 405.103 651.243 370.364 570.703 366.343 C 567.488 366.183 568.224 361.866 568.336 359.428 C 571.069 356.975 600.236 358.59 605.974 358.632 L 684.683 358.702 C 746.207 358.314 809.707 356.277 871.044 359.611 C 985.59 365.838 1096.86 408.029 1150.17 517.393 C 1118.17 528.789 1102.86 544.108 1081.63 569.328 C 1075.42 513.428 1039.71 454.342 995.82 420.063 C 928.683 367.631 837.844 363.653 756.301 368.982 C 746.398 369.629 738.656 373.055 733.014 381.202 C 732.112 418.935 732.822 459.108 732.832 497.144 L 732.743 714.119 C 732.687 737.043 732.777 759.967 733.013 782.89 C 733.077 789.293 733.815 811.917 732.828 817.051 L 729.326 817.361 C 725.434 815.167 702.137 795.83 697.516 792.085 C 693.916 790.026 686.244 786.969 682.393 785.548 C 680.105 783.518 679.804 781.352 678.863 778.385 C 672.089 773.934 658.777 760.006 653.88 753.37 z"/>
<path transform="translate(0,0)" fill="rgb(183,185,123)" d="M 697.817 789.331 C 704.895 794.611 728.048 814.283 732.828 817.051 L 729.326 817.361 C 725.434 815.167 702.137 795.83 697.516 792.085 L 697.817 789.331 z"/>
<path transform="translate(0,0)" fill="rgb(231,217,189)" d="M 678.863 778.385 C 685.206 781.99 691.524 785.639 697.817 789.331 L 697.516 792.085 C 693.916 790.026 686.244 786.969 682.393 785.548 C 680.105 783.518 679.804 781.352 678.863 778.385 z"/>
<path transform="translate(0,0)" fill="url(#Gradient17)" d="M 1351.85 783.313 C 1361.2 787.113 1379.16 797.293 1388.08 802.746 C 1432.91 830.159 1478.86 863.696 1500.07 913.5 C 1514.25 945.598 1515.16 983.799 1501.81 1016.32 C 1486.17 1054.42 1451.21 1081.16 1413.34 1095.46 C 1249.02 1157.51 1016.67 1091.01 935.238 930.381 C 943.333 928.32 945.046 927.303 951.073 921.487 C 1027.4 1068.4 1247.97 1148.83 1399.7 1077.78 C 1421.66 1067.49 1448.61 1043 1455.17 1018.89 C 1472.63 954.708 1405.74 909.011 1359.01 879.613 C 1350.49 874.256 1336.49 868.098 1329.27 862.657 C 1328.68 861.621 1325.9 858.584 1326.1 857.616 C 1328.64 845.072 1330.37 834.428 1330.1 821.554 C 1329.9 811.878 1336.26 798.173 1344.25 792.514 C 1347.1 790.457 1350.53 788.595 1353.37 786.131 L 1350.3 783.925 L 1351.85 783.313 z"/>
<path transform="translate(0,0)" fill="url(#Gradient16)" d="M 1072.29 627.904 C 1072.26 609.645 1085.16 582.101 1096.32 567.661 C 1123.09 533.03 1165.35 517.148 1207.41 511.419 L 1208.19 512.816 C 1211.19 512.864 1212.45 512.788 1215.34 512.508 C 1215.05 517.957 1212 519.402 1206.94 520.736 L 1206.36 521.875 C 1194.19 525.289 1184.26 527.904 1172.89 533.764 C 1134.37 553.628 1114.76 592.541 1127.18 635.027 C 1137.91 671.75 1172.32 693.812 1204.14 711.153 C 1226.65 723.414 1250.33 733.918 1273.4 745.023 C 1287.95 752.026 1342.42 775.405 1351.85 783.313 L 1350.3 783.925 L 1353.37 786.131 C 1350.53 788.595 1347.1 790.457 1344.25 792.514 C 1336.26 798.173 1329.9 811.878 1330.1 821.554 C 1330.37 834.428 1328.64 845.072 1326.1 857.616 C 1325.9 858.584 1328.68 861.621 1329.27 862.657 C 1324.63 860.877 1314.87 855.421 1310 852.921 C 1298.98 847.274 1287.89 841.764 1276.72 836.393 C 1227.15 812.3 1133.49 772.765 1100.34 731.188 C 1076.35 706.302 1067.85 661.198 1072.29 627.904 z"/>
<path transform="translate(0,0)" fill="rgb(201,154,62)" d="M 1072.29 627.904 C 1072.56 629.741 1073.19 633.933 1073.05 635.595 C 1072.41 643.169 1079.66 646.415 1080.73 652.927 C 1081.5 657.587 1077.45 662.908 1079.39 667.35 C 1083.17 676.042 1091.97 686.264 1094.08 695.381 C 1095.77 702.747 1094.2 715.423 1096.29 722.98 C 1097.09 725.887 1100.26 728.67 1102.46 730.725 L 1100.34 731.188 C 1076.35 706.302 1067.85 661.198 1072.29 627.904 z"/>
<path transform="translate(0,0)" fill="url(#Gradient15)" d="M 607.523 825.803 C 611.319 830.564 622.023 843.28 626.211 846.746 C 641.951 859.778 698.255 912.256 712.761 919.34 C 720.425 922.901 725.851 933.134 735.364 934.69 C 744.619 946.563 758.965 953.329 771.414 961.471 C 901.238 1046.38 1047.77 1113.24 1202.77 1133.16 C 1295.37 1145.06 1406.67 1135.69 1482.79 1076.53 C 1490.86 1070.32 1498.4 1063.45 1505.32 1055.98 C 1512.07 1053.08 1515.4 1046.64 1519.43 1040.49 C 1523.86 1040.42 1527.72 1039.81 1531.52 1041.78 C 1535.4 1047.44 1528.59 1053.07 1527.41 1059.89 C 1527.33 1060.04 1527.26 1060.19 1527.18 1060.35 C 1498.31 1099.69 1448.36 1125.59 1401.79 1138.21 C 1247.17 1179.97 1082.32 1134.46 941.235 1068.51 C 908.981 1053.43 874.725 1033.13 843.166 1016.22 C 824 1005.94 805.4 992.607 785.842 981.908 L 783.378 982.83 C 778.717 979.124 772.339 976.127 766.978 973.303 L 768.952 970.697 C 716.612 933.903 645.119 877.058 603.847 828.299 L 607.523 825.803 z"/>
<path transform="translate(0,0)" fill="rgb(231,217,189)" d="M 768.952 970.697 C 774.682 974.332 780.413 977.837 785.842 981.908 L 783.378 982.83 C 778.717 979.124 772.339 976.127 766.978 973.303 L 768.952 970.697 z"/>
<path transform="translate(0,0)" fill="rgb(65,78,22)" d="M 1088.17 733.514 C 1089.72 734.819 1099.54 746.231 1102.45 749.133 C 1118.08 764.728 1131.33 773.275 1150.62 783.322 C 1107.58 856.421 1049.42 888.832 971.315 912.394 C 956.723 916.299 936.508 918.348 920.468 921.518 L 917.056 911.776 C 948.5 903.75 973.291 894.026 1000.13 875.077 C 1047.12 841.456 1078.79 790.522 1088.17 733.514 z"/>
<path transform="translate(0,0)" fill="rgb(98,109,45)" d="M 752.328 779.536 C 760.384 784.746 778.36 804.077 785.514 811.689 C 818.766 847.073 839.618 889.992 853.746 936.146 C 864.036 969.76 872.222 997.043 891.642 1027.35 C 884.498 1024.82 872.986 1014.45 867.359 1009.16 C 819.73 964.378 802.229 900.495 779.468 840.82 C 771.606 819.888 762.544 799.426 752.328 779.536 z"/>
<path transform="translate(0,0)" fill="url(#Gradient14)" d="M 802.46 862.07 C 804.484 861.435 803.921 861.518 806.068 861.358 C 811.612 871.142 821.671 896.503 824.522 907.188 L 820.891 899.964 C 824.511 915.334 836.603 944.032 843.574 958.405 C 845.303 960.699 846.731 961.958 846.731 964.757 L 845.002 965.732 C 842.116 963.128 842.43 959.299 840.097 955.581 C 827.937 936.21 821.178 911.094 812.281 889.649 C 807.519 878.168 809.589 874.869 802.46 862.07 z"/>
<path transform="translate(0,0)" fill="url(#Gradient13)" d="M 838.668 826.7 C 843.659 828.315 857.008 841.802 861.225 845.682 C 890.205 872.298 907.397 908.651 918.527 945.8 C 926.78 974.601 933.638 1003.86 948.926 1029.95 C 956.741 1043.29 964.21 1051.7 973.911 1063.35 C 964.765 1061.36 952.067 1050.3 944.19 1044.95 C 883.844 1004.02 880.94 926.89 858.699 864.316 C 854.124 851.443 845.971 838.31 838.668 826.7 z"/>
<path transform="translate(0,0)" fill="url(#Gradient12)" d="M 835.35 1067.41 C 898.742 1063.56 931.149 1071.99 989.461 1093.32 C 974.055 1092.84 958.852 1092.5 943.588 1094.8 C 918.656 1098.55 894.959 1100.96 869.75 1101.2 C 824.289 1102.31 764.167 1091.37 723.871 1108.71 C 750.091 1082.05 799.259 1069.87 835.35 1067.41 z"/>
<path transform="translate(0,0)" fill="rgb(98,109,45)" d="M 814.233 1081.59 C 819.745 1081.03 847.588 1081.89 849.408 1081.47 L 847.978 1081.47 C 846.444 1082.49 814.279 1083.3 808.508 1084.04 L 806.774 1084.26 C 796.95 1085.04 784.011 1088.06 775.151 1086.83 C 777.599 1085.21 809.349 1082.1 814.233 1081.59 z"/>
<path transform="translate(0,0)" fill="url(#Gradient11)" d="M 635.895 1036.57 C 695.979 1001.07 767.692 1006.49 833.151 1022.57 C 854.868 1027.91 871.663 1037.05 891.901 1042.79 C 854.88 1043.49 816.86 1046.71 779.999 1045.64 C 751.74 1044.82 721.751 1039.7 693.402 1037.76 C 676.782 1036.62 663.026 1037.6 646.643 1038.21 C 647.585 1037.62 626.047 1043.81 623.496 1044.72 C 628.021 1041.43 630.92 1039.31 635.895 1036.57 z"/>
<path transform="translate(0,0)" fill="rgb(119,131,53)" d="M 635.895 1036.57 C 640.984 1039.59 639.61 1037.29 646.643 1038.21 C 647.585 1037.62 626.047 1043.81 623.496 1044.72 C 628.021 1041.43 630.92 1039.31 635.895 1036.57 z"/>
<path transform="translate(0,0)" fill="rgb(65,78,22)" d="M 737.936 1023.46 C 753.732 1021.47 776.324 1024.7 792.327 1026.39 C 799.391 1027.13 841.331 1030.38 843.806 1032.84 C 839.588 1035.15 763.997 1023.84 754.23 1025.07 C 751.998 1025.35 740.773 1024.13 737.936 1023.46 z"/>
<path transform="translate(0,0)" fill="rgb(201,154,62)" d="M 1207.41 511.419 C 1241.53 508.249 1270.71 508.853 1304.68 516.284 C 1329.31 521.673 1353.15 534.548 1378.19 534.918 C 1385.21 535.021 1387.89 527.701 1390.83 522.318 L 1391 603.176 C 1390.97 620.254 1391.52 642.179 1389.23 658.729 C 1381.32 631.246 1375.4 608.738 1360.31 584.124 C 1332.29 538.453 1285.94 518.493 1233.49 519.456 C 1225.2 519.608 1213.76 521.968 1206.36 521.875 L 1206.94 520.736 C 1212 519.402 1215.05 517.957 1215.34 512.508 C 1212.45 512.788 1211.19 512.864 1208.19 512.816 L 1207.41 511.419 z"/>
<path transform="translate(0,0)" fill="rgb(98,109,45)" d="M 537.364 967.351 C 603.234 927.197 699.747 943.901 766.978 973.303 C 772.339 976.127 778.717 979.124 783.378 982.83 C 773.232 983.516 761.561 981.833 751.346 982.343 C 678.104 986.001 610.316 960.198 537.364 967.351 z"/>
<path transform="translate(0,0)" fill="rgb(65,78,22)" d="M 597.501 954.499 C 634.917 953.969 664.938 956.125 702.056 962.555 C 710.133 963.954 722.737 964.834 729.809 968.078 L 730.473 969.912 C 727.452 968.557 721.874 967.854 718.417 967.262 C 682.641 962.233 649.38 955.33 612.858 956.016 C 605.606 956.153 590.829 957.115 584.415 955.683 C 589.531 955.493 592.458 955.293 597.501 954.499 z"/>
<path transform="translate(0,0)" fill="url(#Gradient10)" d="M 970.109 1117.43 C 998.685 1116.16 1053.39 1119.55 1080.8 1127.61 C 1059.7 1130.18 1041.51 1136.62 1020.91 1141.79 C 995.908 1148.06 974.828 1150.44 949.334 1151.67 C 908.135 1151.65 879.116 1147.44 838.734 1158.69 C 879.179 1130.33 921.5 1119.95 970.109 1117.43 z"/>
<path transform="translate(0,0)" fill="rgb(65,78,22)" d="M 990.23 1129.63 C 995.061 1129.08 1002.31 1127.62 1006.15 1130.22 C 1004.77 1131.21 966.416 1132.85 961.775 1132.98 C 956.68 1133.84 952.128 1134.1 947.067 1133.15 C 959.169 1131.32 977.173 1130.82 990.23 1129.63 z"/>
<path transform="translate(0,0)" fill="url(#Gradient9)" d="M 682.393 785.548 C 686.244 786.969 693.916 790.026 697.516 792.085 C 702.137 795.83 725.434 815.167 729.326 817.361 C 746.466 837.979 769.917 866.456 777.972 892.325 C 789.162 928.263 795.237 952.782 813.462 986.223 C 754.744 938.751 742.694 878.026 703.799 817.585 C 697.259 807.422 687.509 796.108 682.393 785.548 z"/>
<path transform="translate(0,0)" fill="url(#Gradient8)" d="M 492.423 618.15 C 514.484 671.686 547.244 714.927 573.638 765.997 C 581.98 782.139 591.301 797.789 599.628 813.933 C 601.984 817.647 604.834 822.453 607.523 825.803 L 603.847 828.299 C 595.595 821.002 587.653 815.467 579.118 807.416 C 525.238 765.421 501.222 689.337 493.059 623.763 C 492.827 621.894 492.615 620.023 492.423 618.15 z"/>
<path transform="translate(0,0)" fill="rgb(65,78,22)" d="M 596.814 820.946 C 593.447 814.748 584.425 802.406 583.36 798.999 C 587.702 802.546 593.748 809.556 596.881 814.14 C 597.653 814.098 598.921 814.083 599.628 813.933 C 601.984 817.647 604.834 822.453 607.523 825.803 L 603.847 828.299 C 595.595 821.002 587.653 815.467 579.118 807.416 L 581.204 806.841 C 586.782 811.111 592.003 815.828 596.814 820.946 z"/>
<path transform="translate(0,0)" fill="rgb(119,131,53)" d="M 535.01 734.661 C 539.984 736.032 545.279 748.185 547.164 752.695 C 541.453 750.414 537.821 740.461 535.01 734.661 z"/>
<path transform="translate(0,0)" fill="url(#Gradient7)" d="M 634.663 736.646 C 643.621 746.531 671.195 783.998 676.203 795.257 C 688.081 816.003 697.359 848.882 705.178 871.524 C 705.976 873.835 711.498 890.345 711.728 891.944 C 719.182 909.493 724.092 919.155 735.364 934.69 C 725.851 933.134 720.425 922.901 712.761 919.34 C 672.825 877.466 662.227 860.689 654.693 803.429 C 652.906 789.851 640.505 750.603 635.369 738.314 L 634.663 736.646 z"/>
<path transform="translate(0,0)" fill="rgb(98,109,45)" d="M 711.728 891.944 L 711.123 895.9 L 708.944 895.132 C 699.363 885.125 682.631 840.585 677.35 825.112 C 675.914 820.903 675.135 815.354 673.48 810.584 L 672.544 811.361 L 672.683 816.162 L 672.288 816 C 670.092 809.691 659.568 781.985 659.09 778.498 C 663.075 783.925 666.925 797.679 669.019 798.938 C 669.295 794.485 661.55 782.296 661.069 775.66 C 666.653 779.482 670.203 791.504 676.203 795.257 C 688.081 816.003 697.359 848.882 705.178 871.524 C 705.976 873.835 711.498 890.345 711.728 891.944 z"/>
<path transform="translate(0,0)" fill="rgb(98,109,45)" d="M 538.134 885.407 C 594.852 882.328 665.626 898.891 712.847 931.097 C 698.632 930.485 676.439 925.811 660.242 924.186 C 596.254 921.813 545.207 898.454 478.322 900.314 C 499.558 891.31 515.151 887.488 538.134 885.407 z"/>
<path transform="translate(0,0)" fill="rgb(65,78,22)" d="M 558.132 893.42 C 571.547 892.217 632.252 903.948 645.822 908.816 C 631.783 910.053 594.529 897.019 578.148 896.724 C 574.151 896.651 562.052 894.543 558.132 893.42 z"/>
<path transform="translate(0,0)" fill="rgb(119,131,53)" d="M 641.853 910.798 C 646.062 909.856 658.955 914.539 663.315 916.152 C 658.065 917.88 647.655 914.311 642.299 912.54 L 641.853 910.798 z"/>
<path transform="translate(0,0)" fill="url(#Gradient6)" d="M 455.97 796.046 C 463.174 796.437 481.009 800.196 488.588 801.9 C 537.97 813 584.567 833.275 626.406 861.737 C 636.661 868.714 649.193 875.917 658.006 885.09 C 650.444 885.034 640.998 879.687 633.348 877.476 C 568.989 858.878 514.09 829.281 455.97 796.046 z"/>
<path transform="translate(0,0)" fill="url(#Gradient5)" d="M 581.992 696.76 C 585.992 700.958 591.795 716.134 595.351 721.737 C 619.365 759.573 634.297 798.992 645.913 842.048 C 648.434 851.393 653.47 861.665 656.974 871.136 C 646.733 862.732 623.462 829.498 617.26 817.154 C 599.84 782.481 585.626 735.36 581.992 696.76 z"/>
<path transform="translate(0,0)" fill="rgb(65,78,22)" d="M 951.171 990.665 C 953.257 991.819 975.426 1018.41 980.532 1023.33 C 1018.33 1059.88 1062.74 1088.9 1111.38 1108.86 C 1086.9 1106.56 1033.81 1086.5 1013.01 1073.01 C 988.292 1056.99 957.014 1019.44 951.171 990.665 z"/>
<path transform="translate(0,0)" fill="rgb(201,154,62)" d="M 1515.02 919.204 C 1537.39 943.712 1548.66 970.074 1547.84 1003.74 C 1547.4 1022.09 1539.5 1045.9 1527.41 1059.89 C 1528.59 1053.07 1535.4 1047.44 1531.52 1041.78 C 1527.72 1039.81 1523.86 1040.42 1519.43 1040.49 C 1515.4 1046.64 1512.07 1053.08 1505.32 1055.98 C 1527.17 1028.72 1536.47 1003.89 1533.21 968.047 C 1531.26 946.521 1524 937.139 1515.02 919.204 z"/>
<g transform="translate(1304,-723)">
<path transform="translate(0,0)" fill="rgb(98,109,45)" d="M 346.163 1297.39 C 361.751 1295.25 389.729 1296.78 406.152 1297.09 C 468.75 1298.26 500.724 1362.06 449.431 1406.83 C 421.457 1427.23 382.904 1421.54 348.469 1421.79 L 347.87 1421.01 C 352.57 1419.03 356.541 1418.72 358.91 1413.55 C 361.555 1407.78 360.838 1307.88 358.394 1303.15 C 356.247 1298.98 350.252 1298.35 346.163 1297.39 z"/>
<path transform="translate(0,0)" fill="rgb(255,255,255)" d="M 387.651 1300.43 C 429.004 1298.58 460.079 1318.76 458.341 1365.5 C 457.688 1383.07 447.513 1396.39 434.461 1407.42 C 422.558 1415.49 387.03 1426.03 376.414 1414.14 C 374.77 1405.42 374.475 1309.84 376.313 1302.16 C 379.916 1300.23 383.458 1300.57 387.651 1300.43 z"/>
<path transform="translate(0,0)" fill="rgb(182,132,34)" d="M 1552.12 1297.43 C 1566.08 1295.08 1614 1295.79 1625.1 1302.39 C 1658.67 1322.33 1643.23 1351.46 1611.82 1361.64 C 1628.72 1385.62 1641.08 1411.65 1668.68 1421.84 C 1666.79 1421.96 1664.89 1422.03 1662.99 1422.07 C 1646.89 1422.35 1640.5 1419.82 1629.06 1408.91 C 1617.4 1396.03 1605.82 1378.64 1595.75 1364.17 C 1590.5 1363.94 1585.25 1363.66 1580 1363.31 C 1579.97 1378.61 1578.24 1398.6 1581.5 1413.6 C 1582.31 1417.35 1587.25 1419.35 1590.66 1420.69 C 1587.8 1422.39 1558.92 1422.11 1554.14 1421.5 L 1554.21 1420.54 C 1556.95 1419.36 1563.97 1416.69 1564.13 1413.82 C 1566.05 1379.49 1564.99 1344.3 1565.06 1309.79 C 1565.07 1300.93 1558.95 1299.5 1552.12 1297.43 z"/>
<path transform="translate(0,0)" fill="rgb(255,255,255)" d="M 1580.1 1301.03 C 1592.14 1300.59 1607.4 1298.58 1617.1 1306.99 C 1630.89 1318.93 1629.58 1338.27 1618.74 1351.5 C 1607.04 1361.09 1594.49 1359.63 1580.02 1359.78 C 1579.9 1340.19 1579.93 1320.61 1580.1 1301.03 z"/>
<path transform="translate(0,0)" fill="rgb(98,109,45)" d="M 1042.68 1458.28 L 1044.09 1458.07 L 1044.97 1459.42 C 1042.05 1484.33 1036.8 1509.81 1010.84 1520.9 C 993.67 1528.24 980.654 1526.24 963.983 1519.53 L 957.934 1524.81 C 953.894 1528.75 952.573 1529.51 947.689 1532.44 C 953.292 1525.15 955.659 1523 962.412 1516.98 C 967.2 1468.34 1004.24 1465.34 1042.68 1458.28 z"/>
<path transform="translate(0,0)" fill="rgb(255,255,255)" d="M 1039.9 1462.43 L 1040.57 1462.46 L 1041.41 1463.54 C 1040.61 1468.44 1039.62 1473.31 1038.46 1478.14 C 1028.8 1517.61 1002.94 1527.63 965.143 1517.84 C 989.499 1505.59 1004.68 1497.14 1025.17 1479.17 L 1030.08 1473.92 L 1029.39 1473.54 C 1007.97 1491.15 988.293 1501.59 964.578 1515.33 C 975.7 1472.01 1001.1 1467.87 1039.9 1462.43 z"/>
<path transform="translate(0,0)" fill="rgb(98,109,45)" d="M 679.167 1296.67 C 682.477 1298.65 704.2 1324.67 708.754 1329.86 C 728.694 1352.55 748.758 1375.13 768.945 1397.6 C 768.619 1370.74 770.42 1335.02 767.457 1308.33 C 766.517 1299.87 759.406 1299.86 755.414 1297.7 L 756.042 1298 L 757.068 1296.98 C 766.708 1296.74 776.352 1296.78 785.99 1297.07 L 786.418 1297.91 C 780.091 1299.7 774.706 1301.76 773.968 1309.43 C 772.744 1322.16 773.241 1335.4 773.201 1348.22 L 772.883 1423.79 C 766.816 1417.15 760.84 1410.43 754.956 1403.63 C 747.77 1395.99 739.585 1385.81 732.399 1377.72 L 674.137 1312.06 C 674.988 1330.48 670.868 1400.91 676.998 1413.28 C 679.814 1418.97 687.196 1420.3 692.721 1421.98 C 683.445 1421.66 664.023 1422.5 656.064 1421.37 C 662.919 1418.22 668.282 1416.53 669.08 1407.83 C 670.107 1396.64 669.9 1385.16 670.028 1373.91 C 670.386 1351.97 670.5 1330.01 670.373 1308.06 C 663.489 1299.96 664.771 1303.07 657.463 1297.53 C 658.818 1296.38 676.004 1296.73 679.167 1296.67 z"/>
<path transform="translate(0,0)" fill="rgb(182,132,34)" d="M 1085.26 1295.2 C 1103.33 1294.53 1108.07 1296.33 1125.05 1303.05 L 1124.84 1330.17 C 1123.97 1326.04 1123.09 1321.7 1121.2 1317.9 C 1116.86 1309.37 1109.26 1302.96 1100.13 1300.11 C 1081.18 1294.34 1067.94 1302.68 1062.56 1320.94 C 1063.26 1323.7 1064.65 1329.81 1066.16 1332 C 1080.11 1351.31 1106.43 1351.03 1123.77 1366.58 C 1143.57 1384.35 1129.8 1412.9 1107.76 1420.23 C 1098.65 1423.27 1093.8 1423.34 1084.49 1423.34 C 1069.8 1422.56 1062.2 1419.86 1049 1413.86 C 1049.04 1401.76 1049 1392.51 1048.03 1380.43 C 1056.35 1405.16 1067.07 1424.08 1097.11 1419.19 C 1111.79 1416.8 1122.46 1403.14 1119 1388.32 C 1116.34 1376.92 1101.42 1370.28 1091.51 1366.4 C 1066.66 1357.12 1038.58 1342.96 1055.63 1311.63 C 1061.17 1301.56 1074.22 1297.42 1085.26 1295.2 z"/>
<path transform="translate(0,0)" fill="rgb(98,109,45)" d="M 863.019 1421.96 C 867.566 1420.32 874.895 1419.73 877.441 1414.94 C 880.067 1410.01 880.243 1308.7 877.834 1304.61 C 875.197 1300.14 872.538 1299.54 867.843 1298.38 L 867.473 1297.31 C 872.77 1296.51 886.007 1296.93 891.793 1296.81 C 912.498 1296.39 934.33 1297.58 954.938 1296.35 C 955.938 1306.71 956.716 1314.94 958.682 1325.22 C 944.752 1294.2 924.374 1300.41 894.527 1300.87 C 894.151 1318.93 894.027 1337 894.157 1355.07 C 894.411 1355.55 895.26 1357.27 895.575 1357.6 C 892.802 1361.3 893.278 1411.96 896.909 1416.54 C 903.169 1419.77 931.683 1417.75 939.704 1415.95 C 955.151 1412.47 961.538 1401.92 968.992 1389.59 C 966.587 1400.37 963.844 1411.06 960.765 1421.67 C 928.396 1421.98 895.115 1421.05 863.019 1421.96 z"/>
<path transform="translate(0,0)" fill="rgb(201,154,62)" d="M 1203.27 1296.72 C 1238.69 1296.99 1274.11 1297 1309.54 1296.75 C 1309.66 1307.31 1310.11 1315.25 1310.96 1325.7 C 1309.5 1322.08 1307.91 1316.67 1306 1313.47 C 1297.29 1298.8 1278.24 1300.72 1263.6 1300.71 C 1263.07 1334.69 1263.75 1368.48 1263.43 1402.44 C 1264.16 1418.05 1266.43 1417.6 1280.67 1422.18 C 1268.26 1421.61 1246.42 1422.78 1236.28 1421.34 L 1236.27 1420.62 C 1242.22 1418.66 1248.32 1417.04 1248.67 1409.25 C 1249.19 1397.6 1248.86 1385.72 1248.84 1374.03 L 1248.99 1300.77 C 1221.56 1299.85 1211.64 1299.61 1200.15 1325.91 C 1201.62 1315.63 1202.95 1307.16 1203.27 1296.72 z"/>
<path transform="translate(0,0)" fill="rgb(182,132,34)" d="M 1414.1 1315.83 C 1417.03 1308.83 1419.91 1301.81 1422.75 1294.78 C 1437.89 1333.94 1456.28 1373.4 1472.7 1412.14 C 1475.03 1417.65 1479.32 1418.94 1484.53 1420.84 L 1484.77 1421.58 C 1480.25 1421.83 1451.28 1422.01 1447.81 1421.34 C 1449.76 1418.68 1457.17 1420.24 1455.6 1412.62 C 1453.72 1403.51 1443.01 1384.08 1441.92 1375.96 L 1442.4 1375.28 C 1441.7 1371.82 1442.36 1373.49 1439.47 1370.47 C 1431.17 1354.08 1423.81 1335.85 1416.88 1318.83 L 1414.1 1315.83 z"/>
<path transform="translate(0,0)" fill="rgb(126,130,94)" d="M 581.837 1296.71 C 575.937 1298.31 572.482 1298.66 568.652 1303.2 C 565.714 1311.61 566.436 1397.62 568.307 1413.49 C 568.772 1417.43 576.785 1420.19 580.746 1421.57 C 569.953 1421.48 551.312 1422.67 541.735 1421.61 L 541.705 1420.52 C 543.237 1420.13 544.741 1419.74 546.217 1419.17 C 548.817 1418.17 551.116 1416.86 551.99 1413.98 C 554.373 1406.13 553.705 1307.15 551.159 1303.33 C 548.399 1299.18 543.562 1298.57 539.082 1297.42 C 544.719 1296.47 574.21 1296.78 581.837 1296.71 z"/>
<path transform="translate(0,0)" fill="rgb(255,255,255)" d="M 1414.1 1315.83 L 1416.88 1318.83 C 1423.81 1335.85 1431.17 1354.08 1439.47 1370.47 C 1442.36 1373.49 1441.7 1371.82 1442.4 1375.28 L 1441.92 1375.96 C 1436.75 1373.72 1402.8 1374.87 1393.96 1374.59 C 1390.09 1383.8 1385.68 1393.46 1382.41 1402.87 C 1378.75 1413.43 1380.67 1416.67 1390.51 1420.73 L 1391.83 1421.26 C 1390.99 1421.88 1363.74 1421.58 1360.56 1421.66 L 1360.13 1420.68 C 1365.95 1418.76 1370.76 1417.48 1373.84 1411.46 C 1378.74 1401.92 1382.76 1391.62 1386.96 1381.72 C 1396.41 1359.93 1405.45 1337.96 1414.1 1315.83 z"/>
<path transform="translate(0,0)" fill="rgb(201,154,62)" d="M 1414.1 1315.83 L 1416.88 1318.83 C 1412.19 1332.89 1401.64 1356.8 1395.11 1370.76 C 1408.2 1370.86 1426.93 1371.45 1439.47 1370.47 C 1442.36 1373.49 1441.7 1371.82 1442.4 1375.28 L 1441.92 1375.96 C 1436.75 1373.72 1402.8 1374.87 1393.96 1374.59 C 1390.09 1383.8 1385.68 1393.46 1382.41 1402.87 C 1378.75 1413.43 1380.67 1416.67 1390.51 1420.73 L 1391.83 1421.26 C 1390.99 1421.88 1363.74 1421.58 1360.56 1421.66 L 1360.13 1420.68 C 1365.95 1418.76 1370.76 1417.48 1373.84 1411.46 C 1378.74 1401.92 1382.76 1391.62 1386.96 1381.72 C 1396.41 1359.93 1405.45 1337.96 1414.1 1315.83 z"/>
<path transform="translate(0,0)" fill="rgb(201,154,62)" d="M 1355.49 1497.15 C 1380.96 1495.82 1414.27 1497.19 1440.43 1497.03 C 1461.36 1496.9 1500.2 1496.36 1519.78 1498.6 L 1520.08 1499.08 C 1501.26 1499.87 1460.36 1501.11 1442.38 1499.73 C 1436.35 1499.09 1417.49 1499.63 1410.67 1499.68 L 1350.01 1500.01 L 1141.51 1500.29 C 1131.04 1500.31 1089.09 1501.88 1082.75 1499.41 L 1082.42 1498.07 C 1086.25 1495.98 1327.37 1497.19 1355.49 1497.15 z"/>
<path transform="translate(0,0)" fill="rgb(231,217,189)" d="M 1355.49 1497.15 C 1380.96 1495.82 1414.27 1497.19 1440.43 1497.03 C 1461.36 1496.9 1500.2 1496.36 1519.78 1498.6 L 1520.08 1499.08 C 1501.26 1499.87 1460.36 1501.11 1442.38 1499.73 C 1446.64 1498.2 1451.49 1498.55 1456.12 1498.5 C 1424.94 1497.61 1385.81 1499.65 1355.49 1497.15 z"/>
<path transform="translate(0,0)" fill="rgb(201,154,62)" d="M 594.631 1499.78 C 579.475 1501.17 552.636 1499.61 536.684 1499.77 C 524.411 1499.89 500.12 1500.38 489.022 1498.84 L 489.252 1498.34 C 517.043 1496.09 564.786 1497.25 593.994 1497.12 C 629.427 1496.96 676.981 1495.32 711.306 1497.16 C 731.44 1497.14 913.808 1495.61 918.11 1498.11 L 918.291 1499.39 C 911.446 1501.17 857.102 1500.41 847.307 1500.38 L 677.011 1500.04 L 621.994 1499.83 C 614.354 1499.79 601.722 1499.3 594.631 1499.78 z"/>
<path transform="translate(0,0)" fill="rgb(231,217,189)" d="M 594.631 1499.78 C 579.475 1501.17 552.636 1499.61 536.684 1499.77 C 524.411 1499.89 500.12 1500.38 489.022 1498.84 L 489.252 1498.34 C 517.043 1496.09 564.786 1497.25 593.994 1497.12 C 629.427 1496.96 676.981 1495.32 711.306 1497.16 C 677.799 1499.34 639.041 1496.95 605.108 1498.23 C 595.286 1498.6 580.162 1497.78 571.012 1498.55 C 577.105 1498.49 589.511 1497.84 594.631 1499.78 z"/>
<path transform="translate(0,0)" fill="rgb(126,130,94)" d="M 1086.66 1564.31 C 1093.51 1562.38 1100.88 1564.31 1105.91 1569.35 C 1110.94 1574.39 1112.86 1581.76 1110.93 1588.61 C 1109 1595.47 1103.52 1600.75 1096.6 1602.42 C 1086.16 1604.94 1075.63 1598.63 1072.92 1588.24 C 1070.21 1577.85 1076.32 1567.21 1086.66 1564.31 z"/>
<path transform="translate(0,0)" fill="rgb(255,255,255)" d="M 1089.39 1568.32 C 1097.64 1566.89 1105.48 1572.44 1106.89 1580.7 C 1108.29 1588.95 1102.73 1596.78 1094.47 1598.16 C 1086.24 1599.54 1078.44 1594 1077.04 1585.78 C 1075.64 1577.55 1081.16 1569.74 1089.39 1568.32 z"/>
<path transform="translate(0,0)" fill="rgb(126,130,94)" d="M 1457.97 1564.57 C 1468.22 1564.87 1486.32 1561.07 1488.49 1575.8 C 1489.25 1580.9 1482.5 1584.99 1480.07 1588.42 C 1478.65 1590.43 1487.38 1596.72 1487.4 1601.59 L 1485.19 1602.99 C 1480.72 1597.01 1473.66 1586.32 1465.24 1587.79 C 1459.84 1594.08 1465.25 1596.7 1461.15 1603.33 L 1458.93 1600.73 L 1459.19 1601.69 C 1457.18 1592.67 1457.94 1574.58 1457.97 1564.57 z"/>
<path transform="translate(0,0)" fill="rgb(255,255,255)" d="M 1462.93 1568.47 C 1469.85 1568.55 1479.32 1567.2 1483.13 1573.86 C 1483.83 1578.04 1483.49 1578.46 1482.21 1582.66 C 1475.82 1586.27 1470.47 1585.19 1462.99 1584.93 L 1462.93 1568.47 z"/>
<path transform="translate(0,0)" fill="rgb(126,130,94)" d="M 487.863 1564.22 C 496.654 1565.38 514.831 1561.74 517.064 1574.11 C 517.817 1578.06 516.771 1582.14 514.21 1585.24 C 511.602 1588.38 509.307 1588.85 505.475 1589.36 C 481.635 1590.03 498.929 1594.58 491.528 1601.9 L 489.283 1601.64 C 487.329 1598.37 487.916 1570.56 487.863 1564.22 z"/>
<path transform="translate(0,0)" fill="rgb(255,255,255)" d="M 493.039 1568.9 C 503.451 1568.6 517.754 1567.06 511.365 1582.65 C 505.62 1585.95 499.89 1585.38 493.272 1585.52 L 493.039 1568.9 z"/>
<path transform="translate(0,0)" fill="url(#Gradient4)" d="M 555.003 1563.45 C 555.812 1563.72 557.217 1564.53 558.033 1564.95 C 561.439 1570.41 575.206 1596.65 575.073 1601.9 L 573.34 1602.57 C 566.818 1598.54 570.53 1593.31 561.25 1592.02 L 545.678 1592.06 C 544.334 1596.38 544.104 1597.85 541.682 1601.56 C 538.867 1602 540.101 1602.34 537.804 1601.12 C 539.665 1594.25 551.243 1570.88 555.003 1563.45 z"/>
<path transform="translate(0,0)" fill="rgb(255,255,255)" d="M 555.685 1568.78 C 558.435 1571.69 563.566 1583.25 562.562 1587.35 L 559.25 1587.95 C 558.147 1588 557.042 1588.05 555.938 1588.08 C 551.935 1588.18 551.767 1588.48 549.519 1586.33 C 549.156 1582.55 553.777 1573.83 555.685 1568.78 z"/>
<path transform="translate(0,0)" fill="rgb(126,130,94)" d="M 1261.33 1563.3 L 1264.18 1564.81 C 1269.41 1572.65 1278.92 1592.49 1280.68 1601.47 L 1280.07 1602.26 C 1272.4 1597.38 1277.31 1593.24 1266.7 1592.09 L 1251.84 1592.65 C 1250.24 1597.45 1250.21 1601.77 1244.92 1601.72 L 1244.42 1600.41 C 1247.19 1591.11 1256.75 1572.49 1261.33 1563.3 z"/>
<path transform="translate(0,0)" fill="rgb(255,255,255)" d="M 1262.19 1569.58 C 1265 1572.65 1270.27 1583.16 1268.47 1587.18 L 1265.2 1587.92 C 1261.17 1588.13 1258.69 1588.89 1256.1 1586.59 C 1255.47 1582.04 1259.98 1574.46 1262.19 1569.58 z"/>
<path transform="translate(0,0)" fill="url(#Gradient3)" d="M 881.654 1566.14 L 883.621 1564.25 C 889.365 1565.66 901.836 1595.92 900.477 1601.29 C 896.859 1600.3 895.472 1595.51 894.133 1592.25 C 887.598 1592.05 880.781 1592.49 874.232 1592.78 C 872.324 1597.04 871.547 1600.04 867.631 1602.14 L 865.996 1601.36 C 866.74 1594.2 877.703 1574.15 881.654 1566.14 z"/>
<path transform="translate(0,0)" fill="rgb(126,130,94)" d="M 881.654 1566.14 L 883.621 1564.25 C 889.365 1565.66 901.836 1595.92 900.477 1601.29 C 896.859 1600.3 895.472 1595.51 894.133 1592.25 L 892.989 1587.82 C 889.661 1582.55 886.308 1574.89 883.568 1569.09 L 881.654 1566.14 z"/>
<path transform="translate(0,0)" fill="rgb(255,255,255)" d="M 883.568 1569.09 C 886.308 1574.89 889.661 1582.55 892.989 1587.82 C 887.431 1588.44 881.594 1588.22 875.974 1588.19 L 883.568 1569.09 z"/>
<path transform="translate(0,0)" fill="rgb(126,130,94)" d="M 674.207 1590.79 C 678.115 1584.1 684.726 1569.97 690.137 1565.46 L 691.831 1565.68 C 694.306 1570.64 694.976 1599.04 691.038 1602.13 C 687.45 1598.27 688.799 1587.05 688.927 1580.96 C 689.006 1578.16 689.09 1578.12 688.405 1575.44 C 685.417 1576.14 677.685 1592.54 674.161 1597.81 C 668.219 1589.68 663.999 1581.96 659.041 1573.25 C 658.935 1578.09 659.193 1599.44 657.468 1601.9 L 655.586 1601.5 C 654.528 1598.84 654.228 1567.96 654.425 1563.34 C 662.407 1565.63 669.952 1583.59 674.207 1590.79 z"/>
<path transform="translate(0,0)" fill="rgb(126,130,94)" d="M 1342.65 1563.26 C 1349.76 1565.84 1363.84 1586.05 1369.7 1593.15 C 1369.83 1586.38 1368.83 1569.15 1371.38 1564.4 L 1372.85 1564.07 C 1375.62 1569.16 1374.82 1596.73 1374.09 1603.38 C 1367.63 1600.65 1352.46 1579.02 1347.59 1572.24 C 1347.58 1577.61 1347.82 1597.4 1346.72 1601.29 L 1344.77 1602.39 L 1343.32 1601.26 C 1342.05 1592.68 1342.47 1572.54 1342.65 1563.26 z"/>
<path transform="translate(0,0)" fill="rgb(126,130,94)" d="M 1139.19 1563.31 C 1145.32 1565.29 1161.06 1587.15 1166.11 1593.36 C 1166.08 1587.8 1164.21 1565.71 1169.24 1563.96 C 1171.38 1569.7 1170.5 1596.21 1170.03 1603.35 C 1164.07 1600.92 1148 1578.46 1143.02 1571.92 C 1143.08 1580.71 1143.5 1592.35 1142.99 1600.92 L 1141.69 1601.99 L 1139.65 1601.48 C 1137.92 1594.94 1139 1571.08 1139.19 1563.31 z"/>
<path transform="translate(0,0)" fill="url(#Gradient2)" d="M 1029.2 1564.16 C 1035.34 1563.86 1045.2 1563.9 1048.85 1570.01 L 1048.11 1571.12 C 1041.62 1571.83 1030.39 1565.62 1025.8 1570.7 C 1014.31 1583.45 1020.51 1597.31 1037.23 1598.19 C 1041.03 1596.42 1044.14 1593.94 1047.89 1596.21 C 1045.24 1602.37 1034.42 1603.33 1028.68 1601.75 C 1023.76 1600.46 1019.64 1597.1 1017.37 1592.53 C 1011.28 1580.4 1017.87 1569.59 1029.2 1564.16 z"/>
<path transform="translate(0,0)" fill="rgb(126,130,94)" d="M 815.241 1602.01 C 815.692 1589.98 814.465 1577.4 815.386 1565.57 C 817.262 1563.91 818.099 1564.66 821.577 1564.85 L 822.74 1567.45 L 820.778 1568.7 C 819.235 1572.56 819.811 1576.65 819.938 1580.91 C 825.789 1580.93 830.823 1580.26 836.066 1582.42 L 835.866 1583.75 C 830.669 1585.68 825.633 1585.09 819.995 1584.99 L 819.872 1598.04 C 825.448 1598.03 835.717 1597.74 840.859 1598.38 L 841.511 1600.08 C 836.974 1603.21 821.617 1602.08 815.241 1602.01 z"/>
<path transform="translate(0,0)" fill="rgb(126,130,94)" d="M 1521.98 1564.09 C 1527.2 1563.97 1532.7 1563.69 1536.72 1567.39 L 1536.66 1569.17 C 1528.73 1568.21 1522.21 1565.97 1516.76 1572.7 C 1516.28 1581.98 1533.84 1579.53 1538.83 1590.18 C 1539.59 1600.02 1530.71 1601.85 1523.04 1602.48 C 1519.04 1601.75 1512.31 1600.32 1511.1 1595.94 C 1518.57 1595.1 1532.03 1604.66 1535.06 1592.61 C 1532.2 1584.52 1517.66 1585.45 1511.61 1575.69 C 1510.93 1568.96 1516.45 1566.52 1521.98 1564.09 z"/>
<path transform="translate(0,0)" fill="rgb(126,130,94)" d="M 1404.79 1602.06 C 1404.89 1595.77 1402.88 1567.96 1405.63 1564.51 L 1408.91 1564.71 C 1409.28 1565.22 1410.54 1566.87 1410.76 1567.37 L 1409.78 1568.19 C 1408.33 1571.59 1408.87 1577.28 1408.94 1581.21 C 1414.88 1581.04 1420.71 1580.25 1426.05 1582.57 L 1425.56 1583.8 C 1420.13 1585.63 1414.92 1585.02 1409.1 1584.89 L 1409.04 1598 C 1415.37 1597.96 1426.78 1596.81 1431.25 1599.41 L 1431.2 1601.01 C 1426.21 1602.71 1410.9 1602.12 1404.79 1602.06 z"/>
<path transform="translate(0,0)" fill="rgb(147,153,122)" d="M 1098.92 1661.91 L 1100.77 1661.92 C 1106.71 1661.94 1110.35 1661.19 1114.41 1665.3 C 1114.66 1669.73 1114.97 1667.57 1112.9 1671.94 C 1113.88 1675 1113.81 1674.38 1115.93 1676.98 C 1115.48 1685.21 1103.76 1686.13 1099.1 1682.04 L 1098.97 1677.75 L 1098.92 1661.91 z"/>
<path transform="translate(0,0)" fill="rgb(255,255,255)" d="M 1100.94 1665.14 C 1104.77 1664.75 1107.78 1663.87 1110.94 1665.72 C 1112.65 1668.28 1112.48 1668.9 1112.9 1671.94 C 1108.02 1671.37 1105.1 1671.91 1101.69 1669.37 L 1100.94 1665.14 z"/>
<path transform="translate(0,0)" fill="rgb(255,255,255)" d="M 1100.74 1673.5 C 1104.57 1673.53 1106.22 1673.56 1109.99 1674.12 C 1113.39 1676.62 1112.29 1675.5 1113.89 1680 C 1110.69 1681.03 1106.64 1682.02 1103.42 1681.02 C 1100.42 1678.1 1101.38 1678.82 1100.74 1673.5 z"/>
<path transform="translate(0,0)" fill="url(#Gradient1)" d="M 894.157 1355.07 C 898.138 1355.06 902.277 1355.13 906.249 1355.04 C 925.172 1354.64 935.859 1358.13 942.045 1337.56 L 942.137 1379.97 C 934.905 1350.09 919.765 1360.33 895.575 1357.6 C 895.26 1357.27 894.411 1355.55 894.157 1355.07 z"/>
<path transform="translate(0,0)" fill="rgb(126,130,94)" d="M 929.123 1564.77 C 937.034 1564.85 947.834 1564.63 955.333 1567.12 C 947.515 1568.21 941.696 1568.35 933.771 1568.58 L 933.46 1582 L 952.697 1582.2 L 952.593 1584.91 C 949.606 1586.83 937.51 1586.02 933.314 1585.92 C 933.348 1590.32 933.715 1597.23 932.699 1601.27 L 930.628 1601.9 C 928.015 1599.3 929.174 1571.45 929.123 1564.77 z"/>
<path transform="translate(0,0)" fill="rgb(126,130,94)" d="M 1192.86 1565.43 C 1200.99 1563.89 1216.72 1564.39 1224.93 1566.48 L 1225.33 1567.43 C 1220.51 1569.14 1217.84 1568.7 1212.74 1568.56 L 1212.62 1590.25 C 1212.77 1595.14 1212.91 1596.76 1212.14 1601.5 L 1210.17 1602.18 C 1206.74 1597.76 1208.06 1575.67 1208.11 1568.38 C 1202.29 1568.52 1197.06 1569.71 1192.86 1565.43 z"/>
<path transform="translate(0,0)" fill="rgb(126,130,94)" d="M 632.005 1661.88 C 638.64 1661.83 641.354 1661.54 647.298 1664.28 C 651.581 1670.12 645.308 1670.41 644.748 1677.1 C 646.375 1679.24 647.168 1680.33 648.537 1682.63 L 647.426 1684.32 C 644.48 1679.93 643.589 1677.3 638.21 1676.53 C 635.297 1677.84 635.185 1678.81 633.702 1681.48 L 633.821 1680.93 L 632.894 1680.33 C 632.521 1674.18 632.225 1668.03 632.005 1661.88 z"/>
<path transform="translate(0,0)" fill="rgb(255,255,255)" d="M 636.081 1664.8 C 640.133 1664.8 642.862 1664.47 645.91 1667.55 C 646.241 1671.61 646.537 1669.66 644.669 1673.55 C 641.397 1673.57 638.637 1674.04 636.003 1672.34 C 634.662 1669.85 635.525 1667.72 636.081 1664.8 z"/>
<path transform="translate(0,0)" fill="rgb(98,109,45)" d="M 765.478 1563.21 C 766.345 1563.66 767.408 1564.44 768.248 1565.01 C 769.914 1570.9 769.203 1590.38 769.067 1597.68 C 774.546 1597.61 783.603 1597.14 788.811 1598.55 C 790.303 1598.96 790.146 1599.95 790.935 1601.99 L 764.643 1602.05 C 765.406 1589.84 764.037 1574.87 765.478 1563.21 z"/>
<path transform="translate(0,0)" fill="rgb(98,109,45)" d="M 602.368 1563.26 L 605.395 1564.21 C 608.162 1568.3 606.74 1591.3 606.616 1598.05 C 612.101 1597.91 622.738 1597.16 627.481 1598.82 L 628.781 1601.77 C 620.076 1601.79 611.371 1601.86 602.667 1601.98 C 603.087 1589.5 602.594 1575.85 602.368 1563.26 z"/>
<path transform="translate(0,0)" fill="rgb(126,130,94)" d="M 1069.6 1661.34 L 1071.43 1662.49 C 1074.41 1667.85 1080.19 1677.52 1080.69 1683.44 L 1079.86 1683.33 C 1077.4 1680.55 1076.72 1679.66 1073.38 1678.1 C 1065.73 1678.44 1068.05 1677.82 1061.62 1682.09 L 1060.58 1681.77 C 1063.67 1675 1066.68 1668.19 1069.6 1661.34 z"/>
<path transform="translate(0,0)" fill="rgb(126,130,94)" d="M 972.28 1660.76 C 975.479 1664.84 981.398 1677.87 982.634 1682.94 L 981.763 1683.34 C 979.899 1680.59 979.354 1679.14 976.094 1677.87 C 968.247 1678.09 970.512 1677.44 964.295 1681.95 L 963.895 1681.31 C 965.613 1673.65 968.852 1667.81 972.28 1660.76 z"/>
<path transform="translate(0,0)" fill="rgb(126,130,94)" d="M 533.644 1661.43 C 537.231 1663.64 542.843 1678.14 544.501 1682.82 L 543.973 1683.72 C 541.7 1680.84 540.974 1679.27 537.32 1678.08 C 527.078 1678.07 527.966 1679.85 522.075 1687.88 C 525.861 1679.03 529.718 1670.22 533.644 1661.43 z"/>
<path transform="translate(0,0)" fill="rgb(255,255,255)" d="M 533.885 1665.46 C 536.903 1669.35 539.601 1673.33 536.235 1677.37 C 533.749 1676.59 533.717 1676.57 531.496 1675.2 C 530.802 1671.27 532.251 1669.63 533.885 1665.46 z"/>
<path transform="translate(0,0)" fill="rgb(126,130,94)" d="M 1445.57 1660.89 C 1448 1663.75 1453.9 1678.65 1455.65 1682.91 L 1454.97 1683.84 C 1451.93 1679.65 1453.05 1679.92 1448.95 1678.15 C 1440.79 1678.18 1443.77 1677.24 1437 1682.11 C 1436.96 1675.9 1442.61 1666.43 1445.57 1660.89 z"/>
<path transform="translate(0,0)" fill="rgb(126,130,94)" d="M 676.41 1661.58 C 678.824 1663.79 687.056 1681.19 686.532 1683.79 C 681.233 1682.05 686.58 1680.74 678.06 1677.83 C 671.162 1678.36 673.858 1677.5 667.547 1682.72 L 667.223 1681.79 C 670.198 1674.59 672.988 1668.59 676.41 1661.58 z"/>
<path transform="translate(0,0)" fill="rgb(126,130,94)" d="M 503.38 1681.01 C 503.489 1675.88 503.653 1671.51 504.07 1666.35 L 505.434 1667.01 C 505.292 1666.04 505.007 1664.82 505.122 1663.92 C 506.604 1670.08 506.123 1677.31 506.046 1683.72 C 499.163 1680.02 495.409 1672.99 491.139 1666.47 C 491.093 1671.84 491.734 1676.91 489.984 1681.88 L 489.034 1681.15 C 487.384 1674.52 488.106 1668.08 488.423 1661.24 C 493.364 1663.58 500.143 1675.78 503.38 1681.01 z"/>
<path transform="translate(0,0)" fill="rgb(126,130,94)" d="M 1025.74 1660.76 C 1030.64 1666.65 1035.48 1673.41 1040.08 1679.6 C 1039.86 1674.69 1039.2 1668.7 1040.74 1664.17 L 1041.75 1665.06 C 1043.24 1671.18 1043.22 1678.86 1041.94 1685.02 C 1036.52 1679.96 1031.66 1672.17 1027.47 1665.94 C 1027.36 1671.36 1027.52 1678.53 1025.68 1683.44 C 1024.92 1676.29 1024.13 1667.79 1025.74 1660.76 z"/>
<path transform="translate(0,0)" fill="rgb(126,130,94)" d="M 1473.76 1661.27 C 1478.62 1664.03 1484.96 1674.77 1487.9 1679.54 C 1488.08 1674.73 1487.58 1668.8 1490.12 1664.75 C 1489.96 1664.06 1490.13 1664.39 1489.55 1663.82 C 1492.06 1666.82 1490.94 1680.91 1490.75 1685.21 C 1486.16 1680.77 1479.92 1671.21 1476.03 1665.6 C 1476.25 1670.05 1476.26 1674.13 1476.24 1678.58 L 1476.14 1678.06 C 1475.39 1680.38 1474.72 1680.81 1475.31 1682.31 L 1475.48 1682.33 L 1474.75 1681.75 C 1473 1674.96 1473.58 1668.29 1473.76 1661.27 z"/>
<path transform="translate(0,0)" fill="rgb(126,130,94)" d="M 1298.24 1662 C 1301.62 1661.99 1309.84 1662.03 1312.73 1662.96 C 1308.59 1664.25 1305.28 1665.33 1301.26 1666.95 L 1301.1 1668.39 C 1303.72 1670.94 1307.51 1671.73 1311.08 1672.88 C 1307.67 1674.13 1304.65 1673.92 1300.99 1674.02 C 1301 1676.58 1301.18 1677.67 1301.56 1680.21 C 1305.29 1681.84 1308.82 1680.5 1313.29 1681.42 L 1313.65 1682.73 C 1310.93 1684.64 1301.97 1683.93 1298.06 1683.91 L 1298.24 1662 z"/>
<path transform="translate(0,0)" fill="rgb(98,109,45)" d="M 1307.61 1563.6 C 1308.63 1563.83 1309.9 1564.32 1310.91 1564.67 C 1313.33 1570.24 1312.02 1595.94 1311.58 1603.19 C 1309.57 1602.3 1310.22 1602.69 1308.6 1601.24 C 1307.44 1593.32 1307.71 1572.78 1307.61 1563.6 z"/>
<path transform="translate(0,0)" fill="rgb(98,109,45)" d="M 1405.15 1662.07 C 1410.72 1661.55 1412.24 1661.61 1416.86 1664.92 L 1415.47 1665.5 C 1412.99 1664.69 1411.58 1664.29 1409.04 1663.73 C 1396.29 1667.66 1400.48 1684.47 1413.57 1681.23 C 1416.33 1678.87 1415.28 1680.35 1416.16 1676.24 C 1413.56 1675.62 1411.48 1675.55 1409.89 1673.55 L 1411.04 1672.68 C 1415.05 1672.56 1414.84 1672.51 1418.46 1674.25 C 1421.43 1679.09 1416.04 1683.44 1412.35 1683.86 C 1397.21 1685.57 1395.56 1670.56 1405.15 1662.07 z"/>
<path transform="translate(0,0)" fill="rgb(126,130,94)" d="M 594.705 1661.46 C 600.54 1666 592.2 1680.29 601.604 1681.6 C 611.967 1683.05 606.369 1665.97 610.11 1662.37 L 611.525 1663.35 C 611.864 1671.5 613.1 1684.5 601.186 1684.25 C 591.901 1679.63 593.393 1670.23 594.705 1661.46 z"/>
<path transform="translate(0,0)" fill="rgb(126,130,94)" d="M 863.301 1661.56 C 869.821 1667.02 862.268 1672.91 867.381 1680.33 C 882.394 1687.74 876.762 1669.03 878.992 1662.96 L 881.008 1662.57 C 881.356 1670.3 882.671 1683.75 871.547 1684.75 C 861.086 1681.93 862.759 1669.68 863.301 1661.56 z"/>
<path transform="translate(0,0)" fill="rgb(126,130,94)" d="M 1365.69 1662.06 C 1369.84 1662.04 1373.82 1662.17 1377.96 1662.31 L 1379.46 1663.3 L 1380.51 1662.83 C 1376.19 1663.98 1372.28 1664.83 1367.93 1665.75 C 1367.43 1667.96 1367.57 1666.86 1368.89 1669.61 C 1372.05 1671.94 1372.33 1671.92 1376.25 1672.96 L 1377.27 1673.22 C 1374.1 1673.85 1370.87 1673.56 1367.61 1673.47 C 1367.78 1677.03 1367.38 1678.29 1368.87 1681.31 C 1374.02 1681.07 1374.83 1681.27 1379.84 1682.6 L 1380.08 1683.35 C 1375.21 1684.01 1370.38 1683.91 1365.46 1683.96 C 1365.92 1677.17 1365.7 1668.98 1365.69 1662.06 z"/>
<path transform="translate(0,0)" fill="rgb(126,130,94)" d="M 1167.71 1662.25 C 1168.04 1662.26 1182.95 1662.97 1181.27 1663.39 L 1180.1 1662.91 L 1181.89 1663.12 C 1176.59 1664.39 1172.92 1664.67 1169.82 1668.94 L 1170.1 1670.67 L 1180.71 1673.26 L 1178.57 1672.8 L 1177.68 1674.1 L 1170.33 1674.1 C 1170.02 1676.82 1169.57 1678.27 1170.62 1680.8 C 1175.95 1681.04 1177.73 1681.11 1182.86 1682.4 C 1177.74 1683.51 1173.1 1683.4 1167.86 1683.53 L 1167.71 1662.25 z"/>
<path transform="translate(0,0)" fill="rgb(126,130,94)" d="M 835.964 1660.9 C 839.162 1661.59 841.602 1662.13 843.488 1664.74 C 839.339 1664.55 837.333 1664.46 833.235 1664.84 L 832.197 1666.56 C 834.494 1671.71 842.309 1672.17 845.271 1678.61 L 844.384 1680.7 C 840.78 1683.34 840.431 1683.34 836.051 1684.6 C 832.563 1683.26 831.928 1682.63 829.011 1680.47 L 829.33 1679.98 L 838.5 1681.57 C 841.786 1680.15 840.597 1681.22 842.554 1678.71 C 839.962 1672.91 830.189 1673.91 829.556 1666.2 C 831.446 1662.93 832.645 1662.67 835.964 1660.9 z"/>
<path transform="translate(0,0)" fill="rgb(98,109,45)" d="M 904.221 1661.92 C 908.024 1661.87 910.922 1661.51 913.666 1664.61 C 909.568 1664.73 904.092 1663.9 901.94 1667.6 C 905.239 1672.79 914.825 1671.46 915.37 1678.84 C 913.335 1682.3 912.739 1682.34 909.024 1684.31 C 904.253 1683.68 903.847 1683.63 899.844 1680.87 C 904.804 1681.18 911.459 1682.65 913.166 1677.3 C 909.953 1672.64 902.598 1674.98 899.897 1668.12 C 901.058 1664.14 900.884 1665.23 904.221 1661.92 z"/>
<path transform="translate(0,0)" fill="rgb(147,153,122)" d="M 930.296 1662.46 C 933.964 1661.89 945.714 1661.16 948.779 1663.03 L 948.302 1664.37 C 946.077 1664.64 943.854 1664.93 941.633 1665.24 C 940.595 1668.15 940.983 1673.83 940.985 1677.25 C 941.074 1680.37 941.334 1680.75 939.971 1683.6 C 936.894 1680.15 938.952 1667.83 936.978 1665.24 C 936.147 1664.14 934.469 1666.83 930.296 1662.46 z"/>
<path transform="translate(0,0)" fill="rgb(147,153,122)" d="M 558.132 1662.49 C 561.575 1661.98 572.706 1661.38 575.544 1662.75 L 575.517 1664.21 L 569.634 1664.99 C 568.419 1668.26 568.917 1673.47 568.951 1677.25 C 568.974 1681.82 569.638 1680.99 567.609 1684.33 C 563.995 1682.82 568.413 1669.37 565.015 1665 C 561.917 1664.35 560.948 1664.16 558.132 1662.49 z"/>
<path transform="translate(0,0)" fill="rgb(126,130,94)" d="M 1508.66 1662.48 C 1512.45 1661.92 1522.69 1661.7 1526.39 1662.42 L 1526.81 1663.85 C 1523.93 1664.98 1524.21 1664.63 1520.89 1664.56 C 1519.28 1667.82 1519.93 1672.75 1519.98 1676.79 C 1520.06 1680.19 1520.14 1680.27 1519.31 1683.75 L 1517.71 1683.84 C 1515.85 1679.2 1518.4 1670.72 1516.37 1665.12 C 1513.9 1664.5 1512.4 1664.21 1510.08 1663.15 L 1508.66 1662.48 z"/>
<path transform="translate(0,0)" fill="rgb(126,130,94)" d="M 1333.1 1661.38 L 1335.31 1663.02 C 1336.46 1668.5 1335.92 1675.35 1335.78 1681.08 C 1340.19 1680.85 1342.05 1680.54 1346.3 1681.4 L 1347.62 1683.66 L 1332.46 1683.99 L 1333.1 1661.38 z"/>
<path transform="translate(0,0)" fill="rgb(126,130,94)" d="M 1135.42 1661.63 L 1137.01 1663.15 C 1138.38 1668.96 1137.9 1675.1 1137.81 1681.14 C 1142.8 1680.93 1146.87 1680.05 1150.36 1682.9 C 1146.06 1684.07 1139.57 1683.9 1134.94 1684 C 1134.89 1676.54 1135.04 1669.08 1135.42 1661.63 z"/>
<path transform="translate(0,0)" fill="rgb(126,130,94)" d="M 705.106 1661.29 L 707.211 1662.56 C 708.317 1668.51 707.804 1675.07 707.646 1681.2 C 712.522 1681.08 716.818 1680.36 720.408 1683.03 C 716.553 1683.89 709.184 1683.88 704.969 1684.01 L 705.106 1661.29 z"/>
<path transform="translate(0,0)" fill="rgb(201,154,62)" d="M 771.394 1668.46 C 772.895 1667.49 774.801 1667.41 776.378 1668.25 C 777.956 1669.09 778.958 1670.71 779.001 1672.49 C 779.044 1674.28 778.119 1675.95 776.584 1676.86 C 774.269 1678.23 771.281 1677.5 769.866 1675.21 C 768.451 1672.92 769.13 1669.92 771.394 1668.46 z"/>
<path transform="translate(0,0)" fill="rgb(201,154,62)" d="M 1567.57 1667.67 C 1569.39 1667.35 1571.23 1668.08 1572.34 1669.55 C 1573.45 1671.02 1573.64 1673 1572.83 1674.65 C 1572.02 1676.31 1570.35 1677.38 1568.5 1677.41 C 1565.94 1677.45 1563.78 1675.52 1563.53 1672.97 C 1563.29 1670.42 1565.05 1668.11 1567.57 1667.67 z"/>
<path transform="translate(0,0)" fill="rgb(201,154,62)" d="M 1236.96 1668.32 C 1239.27 1666.94 1242.26 1667.68 1243.66 1669.97 C 1245.06 1672.27 1244.33 1675.27 1242.04 1676.68 C 1239.74 1678.1 1236.71 1677.37 1235.31 1675.05 C 1233.9 1672.74 1234.64 1669.72 1236.96 1668.32 z"/>
<path transform="translate(0,0)" fill="rgb(201,154,62)" d="M 443.986 1668.44 C 445.521 1667.54 447.428 1667.55 448.951 1668.47 C 450.473 1669.4 451.365 1671.08 451.272 1672.86 C 451.179 1674.64 450.116 1676.22 448.505 1676.98 C 446.167 1678.09 443.373 1677.16 442.164 1674.87 C 440.955 1672.58 441.757 1669.75 443.986 1668.44 z"/>
<path transform="translate(0,0)" fill="rgb(98,109,45)" d="M 1408.91 1564.71 C 1415.28 1564.63 1421.91 1564.07 1427.9 1566.01 L 1429.07 1567.21 C 1424.1 1568.92 1416.09 1568.13 1410.76 1567.37 C 1410.54 1566.87 1409.28 1565.22 1408.91 1564.71 z"/>
<path transform="translate(0,0)" fill="rgb(98,109,45)" d="M 821.577 1564.85 C 827.81 1564.77 833.355 1564.2 839.211 1566.11 L 839.951 1567.17 L 838.833 1567.69 L 839.096 1566.28 L 837.811 1567.91 C 832.241 1568.48 828.297 1568.26 822.74 1567.45 L 821.577 1564.85 z"/>
<path transform="translate(0,0)" fill="rgb(126,130,94)" d="M 1002.22 1661.46 L 1003.65 1662.58 C 1005.36 1668.15 1004.37 1678.47 1003.92 1684.41 C 1000.22 1680.23 1001.96 1667.73 1002.22 1661.46 z"/>
</g>
</svg>